<?xml version="1.0" encoding="UTF-8"?>
<svg width="201.99mm" height="184.32mm" version="1.1" viewBox="0 0 715.71419 653.11963" xmlns="http://www.w3.org/2000/svg">
 <g transform="translate(-58.571 -4.9568)" fill-rule="evenodd">
  <rect x="58.571" y="4.9568" width="715.71" height="653.12" fill="#37474f"/>
  <circle cx="374.29" cy="383.08" r="217.14" fill="#fff"/>
  <path d="m194.81 335.52 3.5032 6.1305 36.345-10.947c6.7062-6.7245 13.307-13.581 18.391-22.332 2.3412-7.45 1.8617-14.114 3.5031-18.829 59.047-75.48 171.75-84.15 239.47 1.0792 3.8072 5.8039-0.52774 10.139 2.2426 16.874 4.4238 8.9589 10.759 16.875 18.391 24.084l39.41 10.509 1.3137-6.1305c-60.417-180.45-298.94-182.46-362.57-0.43788z" fill="#37474f"/>
  <path d="m458.48 360.58 15.538 52.67c65.322 4.8184 44.85 37.221 20.31 72.901l8.7578 38.972c31.808-32.046 66.714-71.302 59.991-164.21l-37.659-12.261c-0.0333 7.5834 1.2029 15.421-4.3789 21.895-18.791 10.111-45.164-3.049-62.559-9.9674z" fill="#37474f"/>
  <path d="m289.6 362.39-14.946 52.005c-65.322 4.8184-41.986 36.077-17.446 71.757l-8.7578 38.972c-31.808-32.046-66.714-71.302-59.991-164.21l37.659-12.261c0.0333 7.5834-1.2029 15.421 4.3789 21.895 18.791 10.111 41.708-1.24 59.103-8.1584z" fill="#37474f"/>
  <path d="m268.15 496.23-9.8526 36.345c81.174 58.558 158.93 52.884 234.27 1.7516l-9.6336-38.097c-20.183 16.912-57.373 44.128-77.069 31.966-9.1744-8.9091-7.556-21.775-6.5684-31.966h-51.452c-1.1669 11.734-1.3238 25.041-13.794 32.842-19.071 5.6356-47.053-17.595-65.903-32.842z" fill="#37474f"/>
  <path d="m471.11 413.46-15.764-54.298c-33.092-12.637-57.655-20.372-80.575-20.597-27.075-0.0255-48.827 9.8611-81.007 21.911l-15.326 53.861c17.322 2.2466 35.544 2.7644 47.73 14.888 8.9322 10.765 18.013 37.823 21.992 62.802l51.297-0.17857c3.503-21.235 9.081-53.908 24.798-67.44 14.39-9.3802 30.795-9.3573 46.854-10.947z" fill="#37474f"/>
  <path d="m373.9 350.85a42.037 42.037 0 0 0 -42.037 42.037 42.037 42.037 0 0 0 42.037 42.037 42.037 42.037 0 0 0 42.037 -42.037 42.037 42.037 0 0 0 -42.037 -42.037zm-0.2001 5.0043a36.833 36.833 0 0 1 36.833 36.833 36.833 36.833 0 0 1 -36.833 36.833 36.833 36.833 0 0 1 -36.833 -36.833 36.833 36.833 0 0 1 36.833 -36.833z" fill="#fff" fill-opacity=".65922"/>
  <path d="m155.71 42.446c-34.515 42.709-57.013 246.46-57.143 349.92h60l54.285-143.93 97.143-68.137s128.57-10.152 138.57 5.7129 88.57 60.418 88.57 60.418l52.857 137.13h184.29v-341.1z" fill="#fff"/>
 </g>
</svg>
